<?xml version="1.0" encoding="utf-8"?>
<!DOCTYPE svg PUBLIC "-//W3C//DTD SVG 1.0//EN" "http://www.w3.org/TR/2001/REC-SVG-20010904/DTD/svg10.dtd">
<svg version="1.0" xmlns="http://www.w3.org/2000/svg" width="721px" height="52px" viewBox="0 0 721 52" preserveAspectRatio="xMidYMid meet">
 <g fill="#f2f4ec">
  <path d="M312.5 42.3 c-3 -0.4 -3.1 -0.6 -3.2 -5.8 -0.1 -5.7 -2.7 -16.3 -6.4 -25.9 -1.5 -4.1 -3 -6.3 -5.3 -7.7 l-3.1 -1.9 8.6 0 8.7 0 3.7 13.8 c2.1 7.5 4.1 14 4.5 14.5 0.9 1 5.3 -13.1 5.4 -17.6 0.1 -3.1 -0.5 -4.4 -2.7 -6.3 l-2.8 -2.4 5.5 0 c9.9 0 11.6 1.7 15.6 16.5 1.1 4.4 2.4 8.7 2.7 9.5 0.6 1.7 4.6 -9.2 6.3 -17.5 1 -4.8 0.9 -6 -0.4 -8.1 l-1.6 -2.4 40.2 0 c36.7 0 40 0.1 38 1.6 -1.8 1.2 -2.2 2.5 -2.2 6.5 l0 4.9 7 0 c5.8 0 7 -0.3 7 -1.6 0 -1.2 0.6 -1.5 2.3 -1 1.2 0.3 3.4 0.6 5 0.6 l2.7 0 0 9 0 9 -5 0 -5 0 0 -4.5 0 -4.5 -7 0 -7 0 0 9.4 c0 8.6 0.2 9.5 2 10.1 4.6 1.4 1.4 2.5 -7.5 2.5 -9.5 0 -11.5 -0.7 -7.2 -2.5 2.1 -1 2.2 -1.4 2.5 -18.4 0.2 -17.4 -0.2 -20.1 -3.4 -20.1 -1.1 0 -1 0.9 0.1 4.8 1.9 6.1 1.9 6.5 -0.4 5.2 -1.1 -0.5 -4.2 -1 -7 -1 l-5.1 0 0 14.6 c0 13.7 0.1 14.6 2 15.1 4.7 1.2 1.3 2.3 -7.5 2.3 -8.8 0 -12.2 -1.1 -7.5 -2.3 1.9 -0.5 2 -1.4 2 -15.1 l0 -14.6 -5.1 0 c-2.8 0 -5.9 0.5 -7 1 -2.4 1.3 -2.5 -0.1 -0.4 -5.9 1.4 -4.1 1 -5.2 -1.3 -2.9 -0.8 0.8 -1.2 6.3 -1.2 18.3 0 9.3 -0.3 18 -0.6 19.3 -0.6 2 -1.2 2.2 -7.5 2.2 -3.9 0 -6.9 -0.4 -6.9 -1 0 -0.5 0.6 -1 1.4 -1 3.2 0 3.7 -2.6 3.4 -20.1 -0.3 -17.2 -0.3 -17.3 -1.6 -11.4 -2.6 11.4 -7.4 28 -8.7 30.1 -1.5 2.4 -7.2 3.5 -13.3 2.7 -3.1 -0.4 -3.8 -0.9 -4 -2.9 -0.1 -1.4 -1 -4.1 -2.1 -6.1 l-1.8 -3.6 -0.7 4.5 c-1 6.8 -2.4 8.1 -8.7 8.3 -3 0.2 -6.8 0.1 -8.4 -0.2z"/>
  <path d="M433 42.2 c0 -0.4 1 -1.2 2.3 -1.7 1.7 -0.8 2.3 -2 2.5 -5.4 0.3 -4.2 0.4 -4.3 3.3 -3.7 4.1 0.8 6.5 3.4 7.3 7.9 l0.7 3.7 -8.1 0 c-4.4 0 -8 -0.3 -8 -0.8z"/>
  <path d="M222.3 40.9 c-0.7 -0.7 -1.3 -2.7 -1.3 -4.5 0 -2.8 0.4 -3.3 3 -3.9 1.9 -0.4 3.6 -0.2 4.5 0.5 1.8 1.5 2 8 0.3 8 -0.7 0 -2.2 0.3 -3.3 0.6 -1.1 0.3 -2.6 -0.1 -3.2 -0.7z"/>
 </g>
 <g fill="#f8e6d6">
  <path d="M185.5 42.1 c-4.6 -0.6 -5 -0.8 -5.3 -3.5 -0.2 -1.5 -0.1 -3.9 0.2 -5.2 0.5 -2 0.9 -2.2 3.8 -1.3 1.8 0.5 3.8 0.9 4.4 0.9 1.4 0 0.5 -10.2 -1 -11.2 -0.6 -0.4 1.9 -0.8 5.6 -0.8 l6.7 0 0.3 9.3 c0.2 5 0.7 10 1.2 11 0.7 1.5 0.2 1.7 -5 1.5 -3.3 0 -8.1 -0.4 -10.9 -0.7z"/>
  <path d="M214.5 42.1 c-9.3 -2.3 -10.5 -5 -10.5 -23.5 l0 -14.5 -2.7 -1.5 c-2.7 -1.5 -2.5 -1.5 5 -1.6 l7.7 0 0 13.8 c0 12 0.2 14.1 1.8 15.4 2.3 2.1 5.8 3.1 8.2 2.3 1.8 -0.6 2 -1.5 2 -10.6 0 -8.8 0.2 -9.9 1.8 -9.9 0.9 0 2.7 1.1 4 2.4 1.9 2.1 2.2 3.4 2.2 11.1 l0 8.8 -3.7 -0.6 c-2.7 -0.5 -3.3 -0.3 -2.5 0.5 1.5 1.5 1.6 6.8 0.2 6.8 -0.5 0 -1 -0.8 -1 -1.9 0 -1 -0.7 -2.4 -1.5 -3.1 -0.9 -0.8 -1.5 -0.9 -1.5 -0.2 0 0.6 0.5 1.4 1 1.7 0.6 0.3 1 1.5 1 2.6 0 1.4 -0.7 1.9 -2.9 1.9 -1.6 0 -3.5 0.2 -4.3 0.4 -0.7 0.2 -2.6 0.1 -4.3 -0.3z"/>
  <path d="M236 22.6 c0 -5.8 0.7 -6.6 6.1 -6.6 2.8 0 2.9 0.2 2.9 4.4 0 4.9 -2.4 7.6 -6.7 7.6 -2.1 0 -2.3 -0.4 -2.3 -5.4z"/>
  <path d="M193.5 8.6 c-3.4 -1.1 -4 -1.7 -4.3 -4.4 -0.3 -2.8 0 -3.2 2 -3.2 5 0 6.6 1.1 7.6 5.1 1.1 4.4 1 4.4 -5.3 2.5z"/>
 </g>
 <g fill="#e2e1e3">
  <path d="M546.1 46.4 c-2.4 -2.1 -6.9 -7.4 -9.9 -11.7 -3 -4.3 -5.9 -7.6 -6.6 -7.4 -0.6 0.2 -1.2 3 -1.4 6.2 -0.3 5.2 0 6.1 2 7.7 2.3 1.8 2.2 1.8 -5.2 1.6 l-7.5 -0.3 -0.3 -19 c-0.2 -17.9 -0.3 -19.1 -2.3 -20.7 -2 -1.7 -1.6 -1.8 11.5 -1.8 16.8 0 20.2 1.1 19.3 6.6 -0.3 1.9 -0.2 3.4 0.4 3.4 0.5 0 0.9 2.6 0.9 5.7 0 4.4 -0.5 6.2 -2.2 8 l-2.1 2.2 2.7 4.2 c2.5 3.8 2.8 3.9 4.1 2.3 1.1 -1.5 1.5 -1.6 2.9 -0.5 1.8 1.5 2.2 8.1 0.5 9.8 -0.6 0.6 -1.4 2.6 -1.8 4.4 l-0.7 3.3 -4.3 -4z m-11.8 -24.6 c3.2 -1.7 4.6 -3.9 4.7 -7.4 0 -4.3 -2.7 -7.3 -7.2 -8.1 l-3.8 -0.6 0 8.7 c0 8 0.1 8.6 2.1 8.6 1.1 0 3 -0.5 4.2 -1.2z"/>
  <path d="M13 40.5 c0 -2.8 2.6 -3.9 8.1 -3.3 2.6 0.2 3.5 0.8 3.7 2.4 0.2 1.7 -0.4 2.3 -2.9 2.8 -1.7 0.3 -4.4 0.6 -6 0.6 -2.4 0 -2.9 -0.4 -2.9 -2.5z"/>
  <path d="M236 34.3 c0 -8.7 0 -8.8 3 -10.5 4.1 -2.3 4.1 -5 0 -3.8 l-3 0.9 0 -10 0 -9.9 15.5 0 15.4 0 0.9 3.2 c0.5 1.8 0.8 3.4 0.7 3.6 -0.1 0.1 -1.4 -0.2 -2.9 -0.8 -1.5 -0.5 -6.1 -1 -10.2 -1 l-7.4 0 0 4 0 4 5.8 0 c3.2 0 6.3 -0.5 7 -1.2 0.9 -0.9 1.2 0.2 1.2 5.1 l0 6.2 -2.2 -1.5 c-1.3 -0.9 -4.3 -1.6 -7 -1.6 l-4.8 0 0 6 0 6 6.3 0 c3.4 -0.1 8.2 -0.5 10.7 -1 2.5 -0.4 4.6 -0.7 4.8 -0.5 0.2 0.2 -0.4 2.8 -1.4 5.9 l-1.8 5.6 -15.3 0 -15.3 0 0 -8.7z"/>
  <path d="M368 40 c0 -2.3 0.4 -3 2 -3 1.1 0 2 0.6 2 1.4 0 0.8 0.9 1.8 2 2.1 3.4 1.1 2.2 2.5 -2 2.5 -3.8 0 -4 -0.2 -4 -3z"/>
  <path d="M445.6 41.6 c0.6 -1.5 -3.1 -5.9 -5.8 -6.9 -1.3 -0.4 -1.8 -1.7 -1.8 -4.2 0 -3.7 0.6 -4 6.2 -3.6 2.6 0.2 2.7 0.1 1.7 -3.1 -1.3 -4.8 -1.2 -6.8 0.6 -6.2 1.2 0.5 1.5 2.7 1.5 11.4 0 10 0.2 10.9 2 11.5 3.2 1 2.3 2.5 -1.5 2.5 -2.5 0 -3.3 -0.4 -2.9 -1.4z"/>
  <path d="M477 42.2 c0 -0.4 1 -1.2 2.3 -1.7 2.1 -1 2.2 -1.4 2.5 -18.7 l0.2 -17.7 -2.7 -1.5 c-2.7 -1.5 -2.6 -1.5 4.2 -1.6 l7.1 0 1.6 3.5 c0.8 1.9 1.2 3.5 0.7 3.5 -0.5 0 -0.9 6.1 -0.9 13.5 0 15 -0.1 14.8 6.5 12.1 8.2 -3.5 9.9 -14 3.3 -21.2 -2.3 -2.6 -1.5 -5.2 2.1 -6 1.4 -0.4 3.1 -1.1 3.7 -1.5 2.8 -2.3 8.4 8.2 8.4 15.8 0 11.5 -5.3 19.1 -14.8 21.2 -5.9 1.2 -24.2 1.5 -24.2 0.3z"/>
  <path d="M227 39.1 c0 -1 -0.7 -2.4 -1.5 -3.1 -3.9 -3.3 1.5 -7.5 6.9 -5.4 1.2 0.4 1.6 2 1.6 5.5 l0 4.9 -3.5 0 c-2.8 0 -3.5 -0.4 -3.5 -1.9z"/>
  <path d="M439.7 23.3 c-1.5 -0.4 -1.6 -0.7 -0.6 -1.9 0.9 -1.1 0.9 -2.3 0 -5.2 -0.6 -2 -1.2 -5.7 -1.4 -8.2 -0.2 -3.6 -0.7 -4.7 -2.7 -5.7 -2.2 -1.1 -1.2 -1.3 7.5 -1.3 9.2 0 9.8 0.1 7.8 1.5 -1.8 1.2 -2.3 2.7 -2.5 7.3 -0.2 4.6 -0.6 5.7 -2 5.7 -2.9 0 -4.1 2 -2.8 4.4 0.6 1.2 0.8 2.6 0.5 3.1 -0.6 1 -0.9 1.1 -3.8 0.3z"/>
  <path d="M228.6 17.4 c-2.2 -2.3 -2.6 -3.5 -2.6 -8.4 0 -4.9 -0.3 -5.8 -2.2 -6.8 -1.9 -0.9 -1.3 -1.1 4 -1.1 l6.2 -0.1 0 9.5 c0 10.6 -0.7 11.5 -5.4 6.9z"/>
 </g>
 <g fill="#e5ced7">
  <path d="M554.5 51.3 c-6.6 -1.4 -8.8 -5.7 -5.4 -10.5 1.6 -2.1 1.7 -3.1 0.9 -4.5 -0.9 -1.4 -0.5 -3.2 2 -8.8 5.3 -11.6 8.2 -19.8 8.2 -23.2 0 -3 0.3 -3.3 3.2 -3.3 5.9 0.1 9.2 4.4 17.1 22.5 3 7.1 6.6 14.1 8 15.5 1.4 1.4 2.5 2.9 2.5 3.3 0 0.4 -4.7 0.7 -10.5 0.7 l-10.5 0 1.6 -2.5 c1 -1.6 1.4 -3.4 1 -5 -0.6 -2.4 -1 -2.5 -8 -2.5 -8.3 0 -8.6 0.2 -8.6 7.6 0 3.4 0.6 5.1 2.5 6.9 1.3 1.4 2.9 2.5 3.5 2.5 0.6 0 0.8 0.5 0.5 1 -0.6 1 -4.2 1.2 -8 0.3z m15.1 -27 c-0.3 -1 -1.5 -4 -2.5 -6.8 l-1.9 -5 -2 4.5 c-3.9 9.2 -4 9 1.8 9 4.4 0 5.1 -0.2 4.6 -1.7z"/>
  <path d="M686 43 c-5 -2.6 -12 -10.4 -16.6 -18.4 l-3.9 -6.7 -0.3 12.5 -0.3 12.6 -5.9 0 c-5.9 0 -8 -1.2 -4 -2.3 1.9 -0.5 2 -1.4 2 -19.1 0 -18.4 0 -18.7 -2.2 -19.6 -1.9 -0.7 -1.4 -0.9 2.5 -0.9 4.3 -0.1 5.3 0.3 9.2 4.2 2.5 2.3 6.7 8 9.5 12.6 l5 8.4 0 -9.6 0 -9.7 4 0 4 0 0 16.8 c0 13.5 0.3 17.2 1.6 19 1.9 2.8 0.4 2.9 -4.6 0.2z"/>
  <path d="M11.2 39.8 l0.3 -3.3 10 0 c8.1 0 10 0.3 10 1.5 0 0.8 -1.7 2.1 -3.9 2.9 -3 1.2 -4.2 1.2 -5.8 0.2 -2 -1.3 -5.8 -0.6 -5.8 1 0 0.5 -1.2 0.9 -2.6 0.9 -2.3 0 -2.5 -0.3 -2.2 -3.2z"/>
  <path d="M603.2 41.9 c-12.9 -1.6 -19.2 -8.4 -19.2 -20.3 0.1 -13.8 7.3 -20.6 21.7 -20.6 9.8 0 10.9 0.5 12.1 5.2 1 3.8 0.9 4 -1.1 3.3 -12 -3.5 -22.7 1.6 -23 11 -0.2 6.5 3.6 10.5 11.4 12 l3.6 0.7 -0.5 -5.4 c-0.3 -2.9 -1 -5.6 -1.6 -6 -0.6 -0.4 1.7 -0.8 5 -0.8 l6.1 0 0.6 -3.6 c1.6 -9.8 9.4 -16.4 19.4 -16.4 7.1 0 8.7 2.2 2.8 3.8 -6.2 1.6 -9.5 4.9 -10.9 10.7 -2.4 9.3 1.2 15.9 8.3 15.3 7.5 -0.6 10.5 -11.7 5.2 -18.9 -1.2 -1.5 -2.1 -3.1 -2.1 -3.4 0 -1.1 7.7 -0.4 9.6 1 5.8 4 7.3 16.6 2.9 24.2 -3.4 5.6 -8.7 8.4 -16.5 8.4 -3.2 0 -7 -0.6 -8.6 -1.4 -3.1 -1.6 -7.8 -6.3 -8.8 -8.7 -0.3 -0.8 -0.4 0.5 -0.3 3 0.2 2.5 0.7 5.3 1.1 6.3 0.7 1.5 0.2 1.7 -5 1.6 -3.3 -0.1 -8.7 -0.5 -12.2 -1z"/>
  <path d="M696.3 41.3 c-2.7 -0.5 -3.9 -2 -4.8 -6 -0.8 -3.8 -0.1 -4 5 -1.9 3.1 1.3 3.5 1.9 3.5 5 0 2 -0.3 3.5 -0.7 3.5 -0.5 -0.1 -1.8 -0.4 -3 -0.6z"/>
  <path d="M543.7 22.8 c-0.2 -1.3 -0.4 -3.6 -0.3 -5.3 0.1 -1.6 -0.4 -3.4 -1.1 -4 -0.9 -0.7 -1 -2.1 -0.3 -5 0.5 -2.2 0.6 -4.3 0.1 -4.8 -1.1 -1.1 -4.6 0.6 -4.6 2.3 0 0.9 -0.7 1.4 -2 1.2 -2.7 -0.5 -3 -0.9 -1.6 -2.6 0.7 -0.8 1 -2 0.6 -2.6 -1.1 -1.8 5.8 -1.1 9.2 1 7.3 4.4 8.4 15.5 2 20.8 -1.2 1 -1.6 0.8 -2 -1z"/>
  <path d="M701 19.5 c0 -5.1 1.5 -6.4 5.9 -4.9 2.2 0.8 2.6 1.5 2.6 4.9 0 4 0 4 -4.2 4.3 l-4.3 0.3 0 -4.6z"/>
  <path d="M74.4 15.5 c-0.3 -1.4 -1 -2.5 -1.5 -2.5 -0.5 0 -0.9 -0.7 -0.9 -1.5 0 -1.1 1.1 -1.5 4 -1.5 l4 0 0 4 c0 3.6 -0.3 4 -2.5 4 -1.8 0 -2.6 -0.7 -3.1 -2.5z"/>
  <path d="M501 11.5 c-1.7 -2.1 -8.3 -4.1 -8.8 -2.6 -0.7 2 -2.3 1.1 -3.3 -1.9 -0.6 -1.7 -1.7 -3 -2.5 -3 -0.8 0 -1.4 -0.7 -1.4 -1.5 0 -2.6 15.5 -2.1 21 0.8 5.3 2.6 5.7 4.8 1.2 5.9 -1.8 0.5 -3 1.3 -2.7 1.7 0.9 1.5 -2.3 2 -3.5 0.6z"/>
  <path d="M527 5.1 c0 -0.5 -1.4 -1.2 -3 -1.6 -4 -0.9 -2.9 -2.5 1.7 -2.5 2.2 0 4.1 0.7 4.9 1.8 1.9 2.5 1.7 3.2 -1.1 3.2 -1.4 0 -2.5 -0.4 -2.5 -0.9z"/>
 </g>
 <g fill="#edcac7">
  <path d="M145.3 42.2 l-3.3 -0.3 0 -7 0 -6.9 2.4 1.5 c6.6 4.3 14.2 -1.7 13.3 -10.4 -0.3 -2.3 -1.4 -5.6 -2.6 -7.2 -1.2 -1.5 -2.1 -3.1 -2.1 -3.4 0 -0.3 1.8 -0.5 4 -0.5 3 0 4.7 0.7 6.5 2.4 l2.3 2.3 2.4 -3.6 c3.3 -5.1 9.7 -8.1 17.4 -8.1 5.5 0 6.2 0.2 6.8 2.3 1 4 0.7 4.7 -2.4 4.7 -4.6 0 -10.8 2.9 -13.1 6.2 -4.3 6 -1.9 14.6 4.7 17 2.5 0.9 3.3 1.6 2.8 2.8 -0.4 0.8 -0.9 3 -1.2 4.7 -0.4 3 -0.7 3.2 -3.1 2.6 -4.7 -1.1 -9.8 -4.1 -11.6 -6.9 l-1.7 -2.7 -2 3.2 c-3.3 5.2 -11.1 8.1 -19.5 7.3z"/>
  <path d="M696.7 38.8 l-1.1 -3.3 -0.7 3 c-0.6 2.6 -0.7 2.7 -0.8 0.6 0 -1.3 -0.9 -3 -1.8 -3.7 -1.7 -1.2 -1.7 -1.3 0 -2 1 -0.4 3.6 -0.2 5.6 0.5 5.2 1.5 8.6 1.4 10.1 -0.4 2.1 -2.5 0.6 -4.7 -5.4 -8 -6.7 -3.6 -10.1 -6.6 -10.9 -9.5 -0.4 -1.7 0 -2 2.8 -2 1.9 0 3.7 -0.4 4 -1 1.1 -1.8 4.3 -1.1 10.9 2.6 8.3 4.5 11.6 8.3 11.6 13.2 0 8.3 -6.4 13.2 -17 13.2 -6 0 -6.1 -0.1 -7.3 -3.2z m9.8 -19.6 c0 -1.8 -2 -1.5 -2.3 0.4 -0.3 1 0.1 1.5 1 1.2 0.7 -0.3 1.3 -1 1.3 -1.6z"/>
  <path d="M134 19 c0 -12.2 0.7 -13.7 7.6 -16.6 4.2 -1.8 12.8 -1.8 14.2 -0.1 0.9 1 0.2 1.6 -3.3 2.5 -2.4 0.6 -5.5 2.2 -7 3.5 -3.3 2.8 -5.5 10.6 -4.4 15.5 1.1 4.8 0.2 6.2 -3.7 6.2 l-3.4 0 0 -11z"/>
  <path d="M686 14.4 c0.4 -3.2 0 -4.5 -0.9 -4 -1.8 1.1 -4.1 -0.6 -4.1 -3 0 -2 0.5 -2.4 2.8 -2.4 1.5 0 3.3 0.4 4 0.9 1.7 1.1 1.2 9.3 -0.6 9.9 -0.9 0.3 -1.3 -0.3 -1.2 -1.4z"/>
 </g>
 <g fill="#d2bfd2">
  <path d="M2 42.1 c0 -0.5 0.7 -1.4 1.5 -2.1 0.8 -0.7 1.5 -2.5 1.5 -4.1 0 -1.6 0.6 -3.9 1.3 -5 1 -1.7 1 -2.3 0 -2.6 -0.8 -0.3 -1.3 -2.2 -1.3 -4.8 0 -4.1 0.1 -4.3 3.8 -4.9 6.4 -1 6.2 -1.3 6.2 7.9 0 9.5 0.2 9.7 6.6 7 1.9 -0.8 4.2 -2.8 5.2 -4.5 0.9 -1.6 2.4 -3 3.2 -2.9 3 0.3 4 -0.1 4 -1.6 0 -0.9 0.9 -1.5 2.5 -1.5 1.4 0 2.5 0.6 2.5 1.3 0 3.3 -2.4 9.1 -5 12.1 l-2.9 3.3 -8.1 -0.5 c-7.6 -0.4 -8.2 -0.3 -8.7 1.7 -0.5 1.8 -1.3 2.1 -6.4 2.1 -3.3 0 -5.9 -0.4 -5.9 -0.9z"/>
  <path d="M61.7 25.3 c-0.3 -0.5 0.2 -2.5 1 -4.5 1.1 -2.9 2.1 -3.8 3.8 -3.8 3.3 0 3.8 1.4 2.4 5.5 -1.1 2.8 -1.8 3.5 -4 3.5 -1.5 0 -3 -0.3 -3.2 -0.7z"/>
  <path d="M28 17.3 c-0.8 -2.1 -1.6 -4.1 -1.8 -4.5 -0.2 -0.5 1.5 -0.8 3.8 -0.8 l4.1 0 -0.3 4.3 c-0.2 3.3 -0.7 4.3 -2.3 4.5 -1.6 0.2 -2.4 -0.6 -3.5 -3.5z"/>
  <path d="M41 14.5 c0 -4.5 0.1 -4.6 2.8 -4.3 2.4 0.3 2.7 0.7 2.7 4.3 0 3.6 -0.3 4 -2.7 4.3 -2.7 0.3 -2.8 0.2 -2.8 -4.3z"/>
  <path d="M7.7 7.4 c-0.4 -0.4 -0.7 -2 -0.7 -3.6 0 -2.7 0.2 -2.8 4.6 -2.8 4.5 0 4.5 0 4.2 3.3 -0.3 2.9 -0.7 3.2 -3.8 3.5 -2 0.2 -3.9 0 -4.3 -0.4z"/>
  <path d="M40.6 4.5 c-0.3 -0.8 -1.6 -2 -2.8 -2.5 -1.9 -0.7 -1.6 -0.9 2 -0.9 3.9 -0.1 4.3 0.1 4 2.1 -0.4 2.6 -2.3 3.5 -3.2 1.3z"/>
  <path d="M439.4 2.5 c-1.8 -1.4 -1.7 -1.4 1.4 -1.5 2.2 0 3.2 0.5 3.2 1.5 0 1.9 -2.1 1.9 -4.6 0z"/>
 </g>
 <g fill="#e1b8c1">
  <path d="M90 38.6 c0 -4.9 1.7 -7 3.4 -4.2 3.1 5.2 4.8 6.7 6.2 5.5 1.2 -1 1.4 -4.5 1.2 -18.8 l-0.3 -17.5 -2.5 -1.3 c-2.2 -1.1 -1.2 -1.3 7.5 -1.3 9.3 0 9.8 0.1 7.7 1.6 -2.1 1.4 -2.2 2.2 -2.2 16 l0 14.4 5.4 0 c2.9 0 7.4 -0.3 9.9 -0.6 l4.5 -0.6 -0.5 -7.4 c-0.5 -6.5 -0.3 -7.9 2.1 -12.8 1.5 -3 3.8 -6.1 5.1 -7 2.9 -1.9 3 -1.8 1 2 -1.8 3.5 -1.9 6.6 -0.2 8.3 1 1.1 0.9 1.4 -0.1 1.8 -0.9 0.4 -1 0.8 -0.2 1.8 0.8 0.9 0.8 1.5 0 2 -0.5 0.3 -1 2 -1 3.8 0 2.9 0.1 3 1.4 1.1 0.8 -1 1.6 -1.7 1.8 -1.4 3.5 4.8 5.9 9.1 5.3 9.9 -0.3 0.7 0.2 1.1 1.4 1.1 1.4 0 2.1 -0.6 2.1 -2 0 -1.3 0.7 -2 2 -2 2.4 0 2.6 1.3 0.5 3.4 -0.8 0.8 -1.5 2.2 -1.5 3 0 0.9 -0.5 1.6 -1.2 1.6 -0.6 0 -1.9 0.7 -2.9 1.6 -2.3 2.1 -5.1 1.2 -9.9 -3.2 l-3.7 -3.4 -1.3 4.5 -1.3 4.5 -19.8 0 -19.9 0 0 -4.4z"/>
  <path d="M707 17.1 c0 -1.5 -0.6 -1.9 -2.3 -1.7 -1.3 0.1 -2.9 0.6 -3.7 1.2 -0.8 0.5 -3.2 0.9 -5.2 1 -3.5 0 -3.8 -0.2 -4.4 -3.2 -0.8 -4.2 1.2 -8.2 5.5 -11.1 2.6 -1.8 4.8 -2.3 9.5 -2.3 9.1 0 10.2 0.6 11.4 5.2 0.9 3.5 0.8 3.9 -0.6 3.3 -5.6 -2.4 -9.2 -2.7 -11.7 -1.1 -3.1 2 -2.4 3.7 2.6 6.5 4 2.3 4.4 4.1 0.8 4.1 -1.2 0 -1.9 -0.7 -1.9 -1.9z"/>
  <path d="M77.7 17.3 c-0.9 -0.8 -0.9 -5 -0.1 -8.1 1 -3.7 3.5 -2.2 6.1 3.6 l2.3 5.2 -3.9 0 c-2.1 0 -4.1 -0.3 -4.4 -0.7z"/>
  <path d="M686.3 11 c-0.3 -1.1 -1.6 -2.3 -2.9 -2.6 -1.6 -0.4 -2.4 -1.3 -2.4 -2.9 0 -1.3 -0.9 -2.6 -2.2 -3.3 -1.9 -0.8 -0.5 -1.1 6.7 -1.1 7.9 -0.1 8.7 0.1 6.5 1.2 -2.1 1 -2.6 2.1 -2.8 6 -0.3 4.8 -2 6.3 -2.9 2.7z"/>
  <path d="M633.8 4.2 c-2.8 -0.6 -2.2 -3.2 0.7 -3.2 1.4 0 2.5 0.3 2.5 0.8 0 1.6 -1.6 2.8 -3.2 2.4z"/>
 </g>
 <g fill="#c7aabf">
  <path d="M0 42.2 c0 -0.4 1 -1.2 2.3 -1.7 1.9 -0.9 2.2 -1.8 2.5 -8.2 0.2 -5.6 0.6 -7.3 1.7 -7.3 0.8 0 1.5 -0.7 1.5 -1.5 0 -0.8 -0.7 -1.5 -1.5 -1.5 -1.2 0 -1.5 -1.7 -1.5 -9 0 -8.7 -0.1 -9 -2.8 -10.4 -2.7 -1.5 -2.7 -1.5 2.4 -1.6 4.4 0 5.2 0.3 5.7 2.1 0.6 2.3 2.7 1.7 2.7 -0.7 0 -2.1 10.5 -1.8 15.5 0.5 4.8 2.2 6.9 4.4 9 9.4 1.7 4.1 2.1 13.7 0.5 13.7 -0.5 0 -1 0.5 -1 1.1 0 0.6 -0.7 1.7 -1.6 2.6 -1.9 2 -8.2 0.5 -7.5 -1.8 0.2 -0.8 0.6 -3.2 0.9 -5.4 0.2 -2.2 0.9 -4.6 1.5 -5.3 0.5 -0.7 0.7 -1.6 0.3 -1.9 -0.4 -0.4 -1 -0.2 -1.5 0.5 -0.5 0.8 -1.4 0.3 -3 -1.9 -2.1 -2.8 -7.4 -5.9 -10.1 -5.9 -0.6 0 -1 2.7 -1 6.4 0 4.2 -0.4 6.6 -1.2 6.9 -1 0.3 -1 0.9 0 2.6 0.6 1.1 1.2 3.1 1.2 4.4 0 2 -0.4 2.3 -2.5 1.9 -2 -0.3 -2.5 0 -2.5 1.6 0 1.2 -0.6 2.5 -1.3 2.9 -1.8 1.2 -4 6 -3.3 7.2 0.5 0.7 -0.4 1.1 -2.3 1.1 -1.7 0 -3.1 -0.3 -3.1 -0.8z"/>
  <path d="M36 42.2 c0 -0.4 1 -1.2 2.3 -1.7 2.1 -0.9 2.2 -1.7 2.7 -13.3 0.3 -6.7 0.8 -12.2 1.3 -12.2 2 0 2.1 -0.2 0.6 -1.3 -1.1 -0.8 -1.8 -3.2 -2 -6.7 l-0.4 -5.5 7.5 -0.3 c7.1 -0.3 7.4 -0.2 5.3 1.3 -2.2 1.6 -2.3 2.1 -2.3 19.6 0 15.1 0.2 17.9 1.5 17.9 2.9 0 15.5 -30.5 15.5 -37.4 0 -3.1 2.4 -3.5 7 -1.1 4.5 2.3 7.2 6.8 6 9.9 -1 2.6 0.1 4.3 2 3.1 1.5 -0.9 11.1 20.3 10.4 23 -0.3 1.3 -0.1 2.6 0.5 2.9 2.6 1.6 0.7 2.6 -4.6 2.5 -5.3 -0.1 -13.5 -1.5 -10.6 -1.8 1.6 -0.1 2.5 -3.4 1.7 -6.5 -0.6 -2.5 -0.9 -2.6 -7.9 -2.6 -7.9 0 -8.5 0.5 -8.5 7.1 0 2.5 -0.3 2.6 -6.7 3.2 -9.3 0.9 -21.3 0.9 -21.3 -0.1z m41.8 -17.4 c-0.3 -0.7 -1.3 -3.7 -2.3 -6.5 -1.1 -2.9 -2.1 -5.3 -2.5 -5.3 -0.5 0 -5 10.9 -5 12.3 0 0.4 2.3 0.7 5.1 0.7 3.7 0 5 -0.4 4.7 -1.2z m-10.8 -2.6 c0 -1.3 -1.2 -2.2 -2.2 -1.6 -1 0.6 -0.1 2.4 1.3 2.4 0.5 0 0.9 -0.4 0.9 -0.8z"/>
 </g>
</svg>